<svg xmlns="http://www.w3.org/2000/svg" width="20" height="20" fill="none"><path fill="#273B7A" d="M10 20a10 10 0 1 0 0-20 10 10 0 0 0 0 20Z"/><path fill="#121149" d="M19.77 12.12 13.67 6l-5.1.4L5.95 8.8l.33 5.17 5.8 5.82a10.01 10.01 0 0 0 7.68-7.66Z"/><path fill="#4285F4" d="M10.22 9.08V11h3a3.37 3.37 0 1 1-.97-3.5L13.66 6a5.42 5.42 0 1 0 1.68 3.08h-5.12Z"/><path fill="#EA4335" d="M10 6.63c.87 0 1.66.34 2.25.88L13.66 6a5.4 5.4 0 0 0-8.45 1.45l1.65 1.33A3.36 3.36 0 0 1 10 6.63Z"/><path fill="#FBBC05" d="M6.64 10c0-.43.08-.84.22-1.21L5.21 7.46a5.4 5.4 0 0 0 0 5.1l1.65-1.36a3.35 3.35 0 0 1-.22-1.2Z"/><path fill="#34A853" d="M11.87 12.8a3.35 3.35 0 0 1-5-1.6l-1.65 1.35a5.42 5.42 0 0 0 8.3 1.57l-1.65-1.32Z"/><path fill="#4285F4" d="M15.42 10c0-.31-.03-.62-.08-.92h-5.12V11h3a3.37 3.37 0 0 1-1.35 1.8l1.65 1.32a5.4 5.4 0 0 0 1.9-4.12Z"/></svg>