<svg xmlns="http://www.w3.org/2000/svg" width="20" height="20" fill="none"><path fill="url(#a)" d="M19.66 3.58A3.64 3.64 0 0 0 16.42.34a60.4 60.4 0 0 0-12.84 0A3.64 3.64 0 0 0 .34 3.58a60.4 60.4 0 0 0 0 12.84 3.64 3.64 0 0 0 3.24 3.24c4.27.45 8.57.45 12.84 0a3.64 3.64 0 0 0 3.24-3.24 60.4 60.4 0 0 0 0-12.84Z"/><path fill="url(#b)" d="M18.57 4.3a3.23 3.23 0 0 0-2.87-2.87c-3.8-.4-7.6-.4-11.4 0A3.23 3.23 0 0 0 1.43 4.3c-.4 3.8-.4 7.6 0 11.4a3.23 3.23 0 0 0 2.87 2.87c3.8.4 7.6.4 11.4 0a3.23 3.23 0 0 0 2.87-2.87c.4-3.8.4-7.6 0-11.4Z"/><path fill="url(#c)" d="m.3 16 .04.42a3.64 3.64 0 0 0 3.24 3.24c4.27.45 8.56.45 12.84 0a3.64 3.64 0 0 0 3.24-3.24l.04-.41H.3Z"/><path fill="url(#d)" d="M19.66 16.42c.24-2.3.36-4.6.34-6.9l-4.57-4.57a3.27 3.27 0 0 0-2.39-1.1 86.13 86.13 0 0 0-6.05 0C5.3 3.92 4.14 5.05 3.84 6.7l-.13.88v4.85c.03.16.06.32.07.48.07 1 .48 1.86 1.14 2.45L9.58 20c2.28.01 4.56-.1 6.84-.34a3.64 3.64 0 0 0 3.24-3.24Z"/><path fill="url(#e)" d="M19.66 16.42a3.64 3.64 0 0 1-3.24 3.24c-2.28.24-4.56.35-6.84.34l-4.65-4.65c.54.47 1.24.76 2.06.8 2.01.07 4.03.06 6.05 0a3.24 3.24 0 0 0 3.2-3.25c.06-1.93.06-3.87 0-5.8a3.37 3.37 0 0 0-.81-2.15L20 9.52c.02 2.3-.1 4.6-.34 6.9Z"/><path fill="url(#f)" d="M12.36 7.83A3.2 3.2 0 0 0 6.8 10c0 .93.4 1.77 1.03 2.36l7.42 7.41 1.17-.11a3.64 3.64 0 0 0 3.24-3.24l.11-1.17-7.41-7.42Z"/><path fill="url(#g)" d="M19.96 12.15 14 6.2a.76.76 0 1 0-1.07 1.07l6.92 6.92c.05-.67.09-1.35.11-2.03Z"/><path fill="url(#h)" d="m3.71 7.57.13-.88C4.14 5.04 5.31 3.91 7 3.86c2.01-.07 4.03-.08 6.05 0a3.24 3.24 0 0 1 3.2 3.23c.06 1.94.06 3.88 0 5.82a3.24 3.24 0 0 1-3.2 3.23 82.3 82.3 0 0 1-6.05 0c-1.83-.07-3.09-1.42-3.2-3.24l-.08-.48V7.57Zm6.3 7.5c.91 0 1.84.02 2.76-.01 1.44-.06 2.33-.92 2.37-2.36.04-1.8.04-3.6 0-5.4-.04-1.44-.93-2.32-2.37-2.36-1.83-.03-3.67-.03-5.5 0-1.43.04-2.33.9-2.36 2.33-.05 1.82-.05 3.64 0 5.46.03 1.43.93 2.27 2.36 2.33.9.03 1.82 0 2.73 0Z"/><path fill="#fff" d="m3.71 7.57.13-.88C4.14 5.04 5.31 3.91 7 3.86c2.01-.07 4.03-.08 6.05 0a3.24 3.24 0 0 1 3.2 3.23c.06 1.94.06 3.88 0 5.82a3.24 3.24 0 0 1-3.2 3.23 82.3 82.3 0 0 1-6.05 0c-1.83-.07-3.09-1.42-3.2-3.24l-.08-.48V7.57Zm6.3 7.5c.91 0 1.84.02 2.76-.01 1.44-.06 2.33-.92 2.37-2.36.04-1.8.04-3.6 0-5.4-.04-1.44-.93-2.32-2.37-2.36-1.83-.03-3.67-.03-5.5 0-1.43.04-2.33.9-2.36 2.33-.05 1.82-.05 3.64 0 5.46.03 1.43.93 2.27 2.36 2.33.9.03 1.82 0 2.73 0Z"/><path fill="#fff" d="M10 6.8a3.2 3.2 0 1 0 0 6.4 3.2 3.2 0 0 0 0-6.4Zm0 5.3a2.1 2.1 0 1 1 0-4.2 2.1 2.1 0 0 1 0 4.2ZM14.15 6.65a.76.76 0 1 1-1.52 0 .76.76 0 0 1 1.52 0Z"/><defs><linearGradient id="b" x1="7.67" x2="-26.21" y1="8.69" y2="-10.37" gradientUnits="userSpaceOnUse"><stop stop-color="#A1B5D8" stop-opacity="0"/><stop offset=".31" stop-color="#90A2BD" stop-opacity=".31"/><stop offset=".76" stop-color="#7C8B9C" stop-opacity=".76"/><stop offset="1" stop-color="#748290"/></linearGradient><linearGradient id="c" x1="10" x2="10" y1="17.65" y2="20.77" gradientUnits="userSpaceOnUse"><stop stop-color="#FAE100" stop-opacity="0"/><stop offset=".31" stop-color="#FCA800" stop-opacity=".31"/><stop offset=".63" stop-color="#FE7300" stop-opacity=".63"/><stop offset=".87" stop-color="#FF5200" stop-opacity=".87"/><stop offset="1" stop-color="#FF4500"/></linearGradient><linearGradient id="d" x1="8.86" x2="3.91" y1="8.83" y2="3.88" gradientUnits="userSpaceOnUse"><stop stop-color="#833AB4" stop-opacity="0"/><stop offset="1" stop-color="#833AB4"/></linearGradient><linearGradient id="e" x1="13.71" x2="11.24" y1="18.29" y2="6.64" gradientUnits="userSpaceOnUse"><stop stop-color="#833AB4" stop-opacity="0"/><stop offset="1" stop-color="#833AB4"/></linearGradient><linearGradient id="f" x1="14.65" x2="4.72" y1="14.65" y2="4.72" gradientUnits="userSpaceOnUse"><stop stop-color="#833AB4" stop-opacity="0"/><stop offset="1" stop-color="#833AB4"/></linearGradient><linearGradient id="g" x1="15.38" x2="12.1" y1="8.64" y2="5.36" gradientUnits="userSpaceOnUse"><stop stop-color="#833AB4" stop-opacity="0"/><stop offset="1" stop-color="#833AB4"/></linearGradient><linearGradient id="h" x1="13.97" x2="5.88" y1="6.06" y2="14.15" gradientUnits="userSpaceOnUse"><stop stop-color="#833AB4"/><stop offset=".09" stop-color="#9C3495"/><stop offset=".29" stop-color="#DC2546"/><stop offset=".39" stop-color="#FD1D1D"/><stop offset=".56" stop-color="#FC6831"/><stop offset=".69" stop-color="#FC9B40"/><stop offset=".75" stop-color="#FCAF45"/><stop offset=".78" stop-color="#FDB750"/><stop offset=".87" stop-color="#FECB6A"/><stop offset=".94" stop-color="#FFD87A"/><stop offset="1" stop-color="#FFDC80"/></linearGradient><radialGradient id="a" cx="0" cy="0" r="1" gradientTransform="matrix(22.0565 0 0 22.0556 4.1 17.48)" gradientUnits="userSpaceOnUse"><stop stop-color="#FAE100"/><stop offset=".05" stop-color="#FADC04"/><stop offset=".12" stop-color="#FBCE0E"/><stop offset=".18" stop-color="#FCB720"/><stop offset=".25" stop-color="#FE9838"/><stop offset=".31" stop-color="#FF7950"/><stop offset=".49" stop-color="#FF1C74"/><stop offset="1" stop-color="#6C1CD1"/></radialGradient></defs></svg>