<svg xmlns="http://www.w3.org/2000/svg" width="20" height="20" fill="none"><path fill="url(#a)" d="M16.42 19.66c-4.27.45-8.57.45-12.84 0a3.64 3.64 0 0 1-3.24-3.24 60.4 60.4 0 0 1 0-12.84A3.64 3.64 0 0 1 3.58.34a60.4 60.4 0 0 1 12.84 0 3.64 3.64 0 0 1 3.24 3.24c.45 4.27.45 8.57 0 12.84a3.64 3.64 0 0 1-3.24 3.24Z"/><path fill="url(#b)" d="M18.57 4.3a3.23 3.23 0 0 0-2.87-2.87c-3.8-.4-7.6-.4-11.4 0A3.23 3.23 0 0 0 1.43 4.3c-.4 3.8-.4 7.6 0 11.4a3.23 3.23 0 0 0 2.87 2.87c3.8.4 7.6.4 11.4 0a3.23 3.23 0 0 0 2.87-2.87c.4-3.8.4-7.6 0-11.4Z"/><path fill="url(#c)" d="m.3 16 .04.42a3.64 3.64 0 0 0 3.24 3.24c4.28.45 8.57.45 12.84 0a3.64 3.64 0 0 0 3.24-3.24l.04-.41H.3Z"/><path fill="url(#d)" d="m20 9.3-4.16-4.15a4.96 4.96 0 0 1-1.6.58 2.57 2.57 0 0 0-4.42 1.95l.05.36c-.6 0-2.52-.16-4.37-1.74l-.87-.87s-1.02 1.78.48 3.13l.22.21.02.02c-.2-.01-.79-.07-1.13-.31 0 0-.07 1.09.84 1.89l.73.74c-.23.01-.47 0-.64-.07 0 0 .15.65.73 1.16l1.03 1.03c-.62.36-1.7.81-3.1.7L10 20c2.14 0 4.28-.11 6.41-.34a3.64 3.64 0 0 0 3.24-3.24c.25-2.37.36-4.75.34-7.12Z"/><path fill="#fff" d="M16.2 6.15c-.44.23-1.11.34-1.33.37v-.03c.74-.47.97-1.34.97-1.34a4.95 4.95 0 0 1-1.6.58 2.57 2.57 0 0 0-4.42 1.95l.05.36a7.2 7.2 0 0 1-5.24-2.61s-1.14 2 .79 3.37c0 0-.79-.03-1.2-.32 0 0-.12 1.93 2.1 2.54 0 0-.78.2-1.17.02 0 0 .39 1.67 2.34 1.79 0 0-1.4 1.28-3.69 1.1a7.28 7.28 0 0 0 11.17-6.4v-.07c.75-.5 1.23-1.31 1.23-1.31Z"/><defs><linearGradient id="a" x1="6.64" x2="11.7" y1="2.81" y2="13.63" gradientUnits="userSpaceOnUse"><stop stop-color="#00C3FF"/><stop offset="1" stop-color="#00B0ED"/></linearGradient><linearGradient id="b" x1="14.23" x2="-14.83" y1="12.27" y2="-3.32" gradientUnits="userSpaceOnUse"><stop stop-color="#00B0ED" stop-opacity="0"/><stop offset="1" stop-color="#00A2CE"/></linearGradient><linearGradient id="c" x1="10" x2="10" y1="17.09" y2="19.71" gradientUnits="userSpaceOnUse"><stop stop-color="#00B0ED" stop-opacity="0"/><stop offset="1" stop-color="#00A2CE"/></linearGradient><linearGradient id="d" x1="19.12" x2="9.35" y1="18.83" y2="9.06" gradientUnits="userSpaceOnUse"><stop stop-color="#00B0ED" stop-opacity="0"/><stop offset="1" stop-color="#00A2CE"/></linearGradient></defs></svg>