<svg xmlns="http://www.w3.org/2000/svg" width="124" height="19" fill="none"><path fill="#fff" d="M15.46 5.61v.1c.02.03.02.06.02.1 0 .17-.07.31-.2.44a.58.58 0 0 1-.42.18.6.6 0 0 1-.35-.11.67.67 0 0 1-.22-.32 17.24 17.24 0 0 1-.56-1.96 503.48 503.48 0 0 0-.34-1.66 61.22 61.22 0 0 1-3.36.07l-.39 14.47c.65.03 1.26.07 1.86.14.17.02.3.08.4.2.1.11.15.24.15.4 0 .2-.07.35-.2.46a.58.58 0 0 1-.4.17h-.07a26.04 26.04 0 0 0-3.73-.2 23.44 23.44 0 0 0-3.64.2h-.07a.6.6 0 0 1-.45-.2.64.64 0 0 1-.17-.43c0-.16.05-.29.15-.4.1-.12.24-.18.4-.2.6-.07 1.19-.11 1.77-.14L5.9 2.38a104.67 104.67 0 0 1-3.44-.2 100.44 100.44 0 0 1-.91 3.8.64.64 0 0 1-.22.32.53.53 0 0 1-.36.13.58.58 0 0 1-.44-.18.64.64 0 0 1-.18-.44v-.08a33.54 33.54 0 0 0 .7-2.84 59.49 59.49 0 0 0 .33-1.52A.6.6 0 0 1 2 .9h.1c.4.06.9.1 1.47.14a94.4 94.4 0 0 0 8.49.17c.72-.03 1.32-.06 1.8-.1h.05c.14 0 .27.05.39.15.11.1.18.21.2.36l.04.2a221.43 221.43 0 0 1 .24 1.23 112.7 112.7 0 0 0 .42 1.74c.08.3.17.58.27.83Zm13.37 6.58a2.08 2.08 0 0 1-1.48-3.56 2.03 2.03 0 0 1 1.7-.61 2.1 2.1 0 0 0-.72-.36 3.01 3.01 0 0 0-.92-.12c-.45 0-.83.09-1.16.28-.33.18-.61.4-.85.69-.22.27-.4.57-.55.9a7.85 7.85 0 0 0-.5 1.64l-.04.35-.02 5.2c.28.03.55.06.82.11l.86.14c.15.04.27.12.36.24.1.1.14.23.14.38 0 .17-.07.32-.2.44a.65.65 0 0 1-.42.16h-.12c-.63-.12-1.23-.2-1.8-.27a15.59 15.59 0 0 0-3.39 0c-.56.06-1.16.15-1.8.27h-.1a.57.57 0 0 1-.44-.18.62.62 0 0 1-.17-.42.6.6 0 0 1 .13-.38c.09-.12.2-.2.35-.24l.82-.14a10 10 0 0 1 .81-.1V7.88a18.77 18.77 0 0 1-1.8-.18.59.59 0 0 1-.39-.19.64.64 0 0 1-.14-.4c0-.2.07-.36.2-.47.14-.1.28-.16.42-.16h.08l.27.05a134.46 134.46 0 0 0 1.6.11 25.08 25.08 0 0 0 2.2 0 7.35 7.35 0 0 0 1.11-.16c.18 0 .33.07.45.2a.6.6 0 0 1 .18.42v.85c.33-.47.75-.86 1.26-1.16a3.46 3.46 0 0 1 1.83-.47c.53.01 1.01.1 1.45.28a3.29 3.29 0 0 1 1.87 1.74 3.36 3.36 0 0 1 .11 2.3A2.18 2.18 0 0 1 29.71 12c-.26.13-.56.2-.88.2Zm15.45-.38v-.2a6.7 6.7 0 0 0-.19-1.63c-.12-.5-.32-.94-.6-1.32a3.2 3.2 0 0 0-1.02-.96 4.12 4.12 0 0 0-1.53-.5 2.7 2.7 0 0 0-1.86 1c-.21.26-.39.55-.53.88a6.51 6.51 0 0 0-.51 2.06c-.04.35-.07.67-.07.98a8.72 8.72 0 0 0 1.9.37 8.8 8.8 0 0 0 4.4-.68Zm1.2.46a.77.77 0 0 1-.33.53c-.2.15-.44.28-.74.4-.3.1-.62.2-.98.28a17.05 17.05 0 0 1-2.67.3 9.96 9.96 0 0 1-2.77-.36c.05.48.14.96.27 1.43s.32.89.57 1.26c.25.37.57.67.94.9.38.23.83.35 1.36.35a3.68 3.68 0 0 0 1.4-.3c.25-.1.47-.22.67-.35.2-.14.37-.3.48-.47.14-.15.3-.23.49-.23.16 0 .3.06.43.2.12.12.19.26.19.42a.5.5 0 0 1-.16.39c-.18.28-.45.53-.78.73a6.35 6.35 0 0 1-2.27.77 6.72 6.72 0 0 1-5.8-1.77 6.34 6.34 0 0 1-1.91-4.57c0-.98.14-1.87.44-2.64a5.35 5.35 0 0 1 3.26-3.19 7.75 7.75 0 0 1 2.63-.42c.93.04 1.72.2 2.38.47a4.37 4.37 0 0 1 2.6 2.9 7.74 7.74 0 0 1 .3 2.97Zm17.39-5.88a.6.6 0 0 1-.13.37c-.09.11-.2.19-.35.22a11.64 11.64 0 0 1-1.45.24 21.5 21.5 0 0 1-.8 2.7 35.6 35.6 0 0 1-2.73 5.85c-.55.97-1.13 1.89-1.74 2.76a.66.66 0 0 1-.2.18.44.44 0 0 1-.26.09.67.67 0 0 1-.48-.2 20.42 20.42 0 0 1-4.54-7.53c-.42-1.18-.76-2.5-1.02-3.95l-.52-.05a3.6 3.6 0 0 1-.49-.09.64.64 0 0 1-.39-.2.6.6 0 0 1-.14-.4c0-.2.07-.35.21-.45.14-.11.28-.16.41-.16h.04c.01.02.03.02.06.02a18.07 18.07 0 0 0 5.84-.02c.17 0 .32.06.44.18s.17.26.17.44a.6.6 0 0 1-.14.38.56.56 0 0 1-.36.21c-.34.07-.68.12-1.03.14.07.36.2.83.36 1.41a23.67 23.67 0 0 0 1.26 3.26c.2.41.41.8.62 1.17a35.49 35.49 0 0 0 1.1 1.75 37.37 37.37 0 0 0 2.55-5.73c.2-.61.38-1.2.52-1.76l-.7-.08c-.25-.04-.5-.1-.77-.16a.56.56 0 0 1-.36-.2.6.6 0 0 1-.14-.4c0-.17.07-.32.2-.44a.66.66 0 0 1 .42-.17h.06a17.44 17.44 0 0 0 1.05.18 8.39 8.39 0 0 0 2.8-.18c.18 0 .32.06.44.2.12.12.19.26.19.42Zm8.78 11.77h-.11a38.36 38.36 0 0 0-1.6-.22 10.65 10.65 0 0 0-1.47-.06 18.12 18.12 0 0 0-3.34.3H65c-.2 0-.34-.05-.45-.18a.64.64 0 0 1-.15-.43c0-.14.05-.27.13-.38.09-.1.2-.18.35-.22a16.97 16.97 0 0 1 1.54-.19V2.48a19.28 19.28 0 0 1-1.44-.17.62.62 0 0 1-.39-.21.62.62 0 0 1-.14-.4c0-.2.07-.36.21-.46.14-.1.28-.16.41-.16h.07l.21.03.54.07a21.51 21.51 0 0 0 2.96.06 8.28 8.28 0 0 0 1.12-.16c.18 0 .33.06.44.2a.6.6 0 0 1 .18.42l-.02 15.08a5.54 5.54 0 0 1 .58.08l.26.04c.1 0 .21.02.35.05a.7.7 0 0 1 .37.22c.09.1.14.23.14.37 0 .18-.07.33-.2.45a.6.6 0 0 1-.43.17ZM83.1 13.9a6.7 6.7 0 0 1-.05-.85h-.43a10.46 10.46 0 0 0-2.43.3c-.45.1-.9.24-1.34.4-.45.17-.85.38-1.2.62a3.1 3.1 0 0 0-.85.83c-.22.32-.32.69-.32 1.1 0 .22.05.4.15.56.11.16.24.29.4.39a2.04 2.04 0 0 0 1.1.27c.56 0 1.08-.1 1.57-.32.5-.22.96-.5 1.39-.84.42-.35.8-.74 1.13-1.17.34-.43.63-.86.88-1.3Zm5.61 4.05h-.04a3.51 3.51 0 0 0-.41-.02h-.41a15.52 15.52 0 0 0-4.32.6.55.55 0 0 1-.44-.21.64.64 0 0 1-.17-.41v-.1l.06-.47c.04-.3.08-.72.12-1.26-.34.37-.7.72-1.08 1.05-.37.32-.77.6-1.2.85-.4.23-.84.41-1.28.55-.45.14-.9.2-1.38.2a3.42 3.42 0 0 1-2.03-.65 2.52 2.52 0 0 1-.65-.76 2.2 2.2 0 0 1-.23-1.02c0-.59.12-1.1.37-1.55.26-.44.6-.83 1.01-1.16.42-.33.88-.61 1.4-.83a11.1 11.1 0 0 1 3.21-.83c.52-.06.98-.1 1.38-.1h.28c0-.47-.08-.94-.26-1.39a3.8 3.8 0 0 0-1.77-2.05 2.89 2.89 0 0 0-1.37-.33c-.36 0-.72.1-1.08.32-.35.2-.66.46-.93.78-.28.32-.5.68-.67 1.08-.16.4-.25.79-.25 1.16a.5.5 0 0 1-.2.4.65.65 0 0 1-.42.15.6.6 0 0 1-.44-.18.62.62 0 0 1-.2-.44c0-.37.08-.76.2-1.17.14-.41.33-.82.58-1.2a6.56 6.56 0 0 1 2.17-2.06 6.56 6.56 0 0 1 5.54-.47 4.4 4.4 0 0 1 1.56 1.12 5.3 5.3 0 0 1 1 1.63c.24.61.42 1.27.55 1.95.12.69.2 1.39.23 2.1a37.18 37.18 0 0 1 .04 3.47 5.3 5.3 0 0 0 .71-.02h.41c.15.02.3.02.44.02.17.01.3.08.4.2.12.12.17.26.17.43 0 .17-.06.31-.17.44a.54.54 0 0 1-.43.18Zm17.42-.48a.6.6 0 0 1-.21.4.65.65 0 0 1-.43.15h-.04a18.43 18.43 0 0 0-4.95.14.6.6 0 0 1-.43-.18.62.62 0 0 1-.19-.44.6.6 0 0 1 .5-.6c.33-.06.66-.1.99-.14l1.03-.1a24.78 24.78 0 0 0 .6-3.76 13.6 13.6 0 0 0 0-2.6c-.04-.47-.14-.91-.3-1.32a2.6 2.6 0 0 0-.65-1.03 1.56 1.56 0 0 0-1.14-.4c-.54 0-1.04.12-1.5.39-.46.27-.86.6-1.2 1.02-.32.4-.58.86-.78 1.35-.19.49-.28.96-.28 1.42v.02l-.02 5.16a64.07 64.07 0 0 1 .8.09c.16.01.29.08.4.2a.6.6 0 0 1-.04.84.58.58 0 0 1-.43.19.08.08 0 0 1-.07-.04l-1.44-.14a15.95 15.95 0 0 0-4.78.25.26.26 0 0 1-.12.02.53.53 0 0 1-.43-.2.67.67 0 0 1-.16-.43c0-.14.04-.27.13-.39.08-.11.2-.18.35-.2a13.87 13.87 0 0 1 1.63-.23V7.94l-1.25-.09a4.53 4.53 0 0 1-.55-.08.57.57 0 0 1-.38-.2.64.64 0 0 1-.14-.4c0-.2.06-.34.2-.45a.63.63 0 0 1 .42-.18c.03 0 .05 0 .07.02a14.19 14.19 0 0 1 .94.09 24.77 24.77 0 0 0 3.14.05 5.97 5.97 0 0 0 1.1-.16c.18 0 .33.07.44.2.13.13.19.27.19.42v1.2a4.42 4.42 0 0 1 3.76-2.02 2.8 2.8 0 0 1 2.12.9c.26.28.47.6.62.95a6.85 6.85 0 0 1 .59 2.3 11.57 11.57 0 0 1 0 2.43 27.05 27.05 0 0 1-.56 3.75l.91.04.97.08c.18.02.32.1.41.24.1.13.16.28.16.43Zm11.3-8.3c-.11-.36-.29-.66-.52-.92a3.42 3.42 0 0 0-1.77-1.02 4.29 4.29 0 0 0-2.46.13c-.42.16-.78.39-1.1.68-.3.28-.58.61-.8 1a6.36 6.36 0 0 0-.85 2.47 6.47 6.47 0 0 0 .14 2.92c.16.52.39.99.68 1.4.3.4.68.74 1.1.99a3.07 3.07 0 0 0 3.98-.94c.31-.38.57-.79.78-1.23a10.13 10.13 0 0 0 .77-2.38c.05-.32.07-.53.05-.63V9.16Zm5.6 8.78h-.05a14.87 14.87 0 0 0-4.76.41.15.15 0 0 1-.08.03h-.08a.57.57 0 0 1-.45-.2.6.6 0 0 1-.18-.42v-2a4.68 4.68 0 0 1-2.75 2.43 4.28 4.28 0 0 1-3.28-.25 4.73 4.73 0 0 1-1.5-1.22 5.67 5.67 0 0 1-.94-1.79 7.2 7.2 0 0 1-.34-2.14 8.2 8.2 0 0 1 1.35-4.77 5.06 5.06 0 0 1 2.44-1.88 5.45 5.45 0 0 1 3.55.04c.56.2 1.05.48 1.47.84V2.31a18.73 18.73 0 0 1-1.78-.15.66.66 0 0 1-.4-.21.6.6 0 0 1-.15-.41c0-.18.06-.32.19-.43a.64.64 0 0 1 .43-.17h.07c.01 0 .1 0 .27.03a131.18 131.18 0 0 0 1.63.13 25.32 25.32 0 0 0 2.18-.01c.36-.03.69-.08.99-.15h.15c.18 0 .32.06.43.19.11.11.17.25.17.4v15.15h.23a15.86 15.86 0 0 1 1.23.04c.17.02.3.08.41.2.11.12.17.26.17.41 0 .19-.08.34-.22.46a.64.64 0 0 1-.4.16Z"/></svg>